# xmcd CD database file
#
# Track frame offsets:
#	150
#	20939
#	51080
#	77721
#	96301
#	123379
#	145035
#	166184
#	184854
#	204419
#	224421
#
# Disc length: 3262 seconds
#
# Revision: 6
# Processed by: cddbd v1.5.2PL0 Copyright (c) Steve Scherf et al.
# Submitted via: CDex 1.70beta2
#
DISCID=9c0cbc0b
DTITLE=Clazziquai Project - ZBAM - Remix
DYEAR=2004
DGENRE=Electronica
TTITLE0=Oh yes - drum bon remix
TTITLE1=Futuristic - house remix
TTITLE2=Come to me - mellotron remix
TTITLE3=She loves you
TTITLE4=Stepping out - step remix
TTITLE5=You never know - soft remix
TTITLE6=Snatcher
TTITLE7=Coming at me to disco - rocking remix
TTITLE8=After love - female version
TTITLE9=Skyscraper
TTITLE10=Come to me - mellotron remix (radio edit)
EXTD=YEAR: 2004
EXTT0=
EXTT1=
EXTT2=
EXTT3=
EXTT4=
EXTT5=
EXTT6=
EXTT7=
EXTT8=
EXTT9=
EXTT10=
PLAYORDER=
